:FULLY-SPECIFIED
:FORCE-ALL-JOINTS-BE-3DOF
:DEGREES
2242
root -0.738098 13.835 -16.4042 -169.279 -25.64 169.067
lfemur 11.4457 0.0454701 -15.0567
ltibia 33.4933 -0 0
lfoot -23.9384 36.4747 0.00831755
ltoes -43.6068 0 0
rfemur -71.3816 -22.4496 8.82155
rtibia 73.1383 -0 0
rfoot -5.88278 14.2998 -0.0141442
rtoes 3.8233 -0 0
lowerback 9.31851 2.14643 -13.6026
upperback -2.77828 0.808947 -2.0118
thorax -8.51262 0.956694 5.3394
lowerneck 1.05036 -12.0661 -12.4309
upperneck 4.65664 -16.7835 10.3881
head 3.13568 -8.43231 4.40562
lclavicle 2.8597e-14 2.36554e-14 0
lhumerus -69.5208 -18.1753 104.01
lradius 102.06 -0 0
lwrist 61.0384 0 0
lhand -10.7516 61.7849 0.0568861
lfingers 7.12502 -0 0
lthumb 14.9516 135.567 1.20312
rclavicle 2.8597e-14 2.36554e-14 0
rhumerus 49.3225 -9.93739 -59.7855
rradius 16.7911 -0 0
rwrist 34.9906 0 0
rhand -19.9226 -42.7444 -0.000533862
rfingers 7.12502 -0 0
rthumb 6.41452 -72.6274 -0.000478907
2243
root -0.741698 13.8283 -16.4291 -169.068 -25.6005 168.989
lfemur 11.5725 -0.0109776 -15.1325
ltibia 33.1268 -0 0
lfoot -23.8494 36.5315 0.00764692
ltoes -43.8591 0 0
rfemur -71.6827 -22.5531 8.87978
rtibia 73.431 -0 0
rfoot -6.08588 14.342 -0.0130036
rtoes 3.9214 -0 0
lowerback 9.193 2.14711 -13.6505
upperback -2.81522 0.816498 -2.04147
thorax -8.48366 0.960688 5.33322
lowerneck 1.02698 -12.0855 -12.4067
upperneck 4.62769 -16.8049 10.4012
head 3.13239 -8.44128 4.40362
lclavicle 2.8597e-14 2.36554e-14 0
lhumerus -69.5261 -18.1987 104.015
lradius 102.035 -0 0
lwrist 61.1274 0 0
lhand -10.8652 61.481 0.0522976
lfingers 7.12502 -0 0
lthumb 14.8298 129.963 1.09089
rclavicle 2.8597e-14 2.36554e-14 0
rhumerus 49.3382 -9.95947 -59.6989
rradius 16.8147 -0 0
rwrist 34.8911 0 0
rhand -19.9499 -42.7325 -0.00049082
rfingers 7.12502 -0 0
rthumb 6.38823 -72.6163 -0.000440295
2244
root -0.745298 13.8215 -16.454 -168.867 -25.5623 168.915
lfemur 11.6942 -0.0649862 -15.2053
ltibia 32.775 -0 0
lfoot -23.7641 36.5859 0.00692058
ltoes -44.1012 0 0
rfemur -71.9719 -22.6522 8.93625
rtibia 73.7119 -0 0
rfoot -6.28078 14.3826 -0.0117683
rtoes 4.01553 -0 0
lowerback 9.07257 2.14766 -13.6964
upperback -2.85067 0.823725 -2.06994
thorax -8.45588 0.964522 5.32729
lowerneck 1.00453 -12.1041 -12.3834
upperneck 4.59991 -16.8254 10.4138
head 3.12924 -8.44988 4.40169
lclavicle 2.8597e-14 2.36554e-14 0
lhumerus -69.5312 -18.221 104.02
lradius 102.011 -0 0
lwrist 61.2127 0 0
lhand -10.9741 61.1893 0.0473282
lfingers 7.12502 -0 0
lthumb 14.7238 124.587 0.972502
rclavicle 2.8597e-14 2.36554e-14 0
rhumerus 49.3533 -9.98068 -59.6157
rradius 16.8373 -0 0
rwrist 34.7956 0 0
rhand -19.976 -42.7211 -0.000444201
rfingers 7.12502 -0 0
rthumb 6.36299 -72.6057 -0.000398476
2245
root -0.748898 13.8147 -16.479 -168.675 -25.5257 168.844
lfemur 11.8103 -0.116273 -15.2748
ltibia 32.44 -0 0
lfoot -23.6829 36.6378 0.00615351
ltoes -44.3318 0 0
rfemur -72.2475 -22.7463 8.99057
rtibia 73.9793 -0 0
rfoot -6.46637 14.4212 -0.0104638
rtoes 4.10517 -0 0
lowerback 8.95788 2.1481 -13.7402
upperback -2.88444 0.830591 -2.09706
thorax -8.42942 0.968177 5.32165
lowerneck 0.983145 -12.1218 -12.3613
upperneck 4.57345 -16.8449 10.4258
head 3.12624 -8.45807 4.39986
lclavicle 2.8597e-14 2.36554e-14 0
lhumerus -69.5361 -18.2423 104.025
lradius 101.988 -0 0
lwrist 61.294 0 0
lhand -11.0778 60.9116 0.0420807
lfingers 7.12502 -0 0
lthumb 14.6336 119.468 0.851002
rclavicle 2.8597e-14 2.36554e-14 0
rhumerus 49.3676 -10.0009 -59.5366
rradius 16.8588 -0 0
rwrist 34.7046 0 0
rhand -20.0009 -42.7103 -0.000394968
rfingers 7.12502 -0 0
rthumb 6.33896 -72.5956 -0.000354311
2246
root -0.752499 13.808 -16.5039 -168.494 -25.491 168.777
lfemur 11.9198 -0.164557 -15.3405
ltibia 32.1238 -0 0
lfoot -23.6062 36.6867 0.00536193
ltoes -44.5495 0 0
rfemur -72.508 -22.8349 9.04232
rtibia 74.2318 -0 0
rfoot -6.64156 14.4576 -0.00911762
rtoes 4.1898 -0 0
lowerback 8.84962 2.14844 -13.7815
upperback -2.91631 0.837057 -2.12267
thorax -8.40444 0.971629 5.31632
lowerneck 0.96295 -12.1385 -12.3404
upperneck 4.54846 -16.8633 10.4372
head 3.1234 -8.4658 4.39812
lclavicle 2.8597e-14 2.36554e-14 0
lhumerus -69.5406 -18.2625 104.03
lradius 101.967 -0 0
lwrist 61.3707 0 0
lhand -11.1757 60.6494 0.0366659
lfingers 7.12502 -0 0
lthumb 14.5587 114.635 0.729349
rclavicle 2.8597e-14 2.36554e-14 0
rhumerus 49.3811 -10.02 -59.4618
rradius 16.8792 -0 0
rwrist 34.6188 0 0
rhand -20.0244 -42.7 -0.000344162
rfingers 7.12502 -0 0
rthumb 6.31628 -72.5861 -0.000308734
